<?xml version="1.0" standalone="no"?>
<!DOCTYPE svg PUBLIC "-//W3C//DTD SVG 20010904//EN"
 "http://www.w3.org/TR/2001/REC-SVG-20010904/DTD/svg10.dtd">
<svg version="1.0" xmlns="http://www.w3.org/2000/svg"
 width="512.000000pt" height="512.000000pt" viewBox="0 0 512.000000 512.000000"
 preserveAspectRatio="xMidYMid meet">
<metadata>
Created by potrace 1.14, written by Peter Selinger 2001-2017
</metadata>
<g transform="translate(0.000000,512.000000) scale(0.100000,-0.100000)"
fill="#000000" stroke="none">
<path d="M2330 4990 c-138 -6 -165 -15 -225 -75 -61 -62 -71 -94 -90 -285 -3
-30 -8 -75 -11 -100 -6 -50 -9 -87 -20 -203 -7 -86 -12 -93 -89 -118 -45 -15
-207 -94 -245 -119 -121 -81 -161 -109 -201 -142 -26 -21 -50 -38 -54 -38 -4
0 -116 49 -249 109 -132 60 -257 112 -276 116 -55 12 -107 7 -159 -16 -73 -31
-101 -66 -209 -259 -14 -25 -55 -97 -92 -160 -119 -203 -125 -217 -124 -290 1
-77 30 -145 79 -188 17 -16 104 -80 191 -142 87 -63 161 -116 164 -119 3 -4
25 -19 48 -36 41 -27 44 -31 38 -65 -15 -87 -21 -165 -21 -305 0 -135 3 -179
21 -295 5 -36 5 -36 -113 -120 -65 -46 -119 -88 -121 -92 -2 -4 -10 -8 -17 -8
-7 0 -15 -4 -17 -8 -1 -4 -25 -23 -53 -42 -144 -99 -193 -163 -200 -261 -5
-71 11 -112 111 -285 47 -82 109 -189 137 -239 69 -124 108 -169 170 -200 104
-51 153 -40 450 99 55 25 101 46 103 46 2 0 32 13 66 30 34 16 65 30 70 30 5
0 36 -22 71 -48 132 -103 296 -199 432 -252 33 -13 65 -27 72 -32 6 -5 14 -48
18 -96 4 -48 9 -95 11 -106 2 -10 6 -51 9 -90 4 -39 9 -87 11 -106 2 -19 7
-62 10 -95 12 -125 80 -214 186 -246 43 -12 653 -12 697 1 67 19 130 76 161
145 10 22 21 74 25 115 3 41 8 86 10 100 2 14 7 54 10 90 3 36 8 76 10 90 5
39 19 184 17 191 0 3 31 19 71 34 147 57 343 171 458 267 26 21 51 38 55 38 8
0 166 -70 364 -162 122 -56 164 -70 217 -69 69 0 146 34 186 81 30 36 297 489
325 555 19 42 22 122 7 172 -25 83 -40 96 -383 343 -129 92 -132 96 -127 127
27 176 27 445 -1 603 l-6 35 221 159 c122 87 233 173 248 190 54 64 74 164 48
240 -8 22 -62 124 -121 226 -59 102 -120 210 -137 240 -48 89 -96 140 -152
166 -82 38 -151 34 -255 -13 -30 -14 -98 -44 -150 -68 -52 -23 -129 -58 -170
-77 -120 -56 -106 -57 -216 25 -121 91 -234 156 -366 212 -55 24 -103 47 -108
51 -4 5 -11 43 -14 84 -4 41 -9 89 -11 105 -3 17 -7 53 -9 80 -13 145 -27 265
-36 295 -24 82 -114 164 -194 175 -60 8 -411 11 -556 5z m405 -1549 c255 -51
481 -216 610 -447 44 -79 91 -220 103 -309 17 -130 1 -314 -35 -405 -3 -8 -7
-20 -8 -26 -2 -6 -15 -37 -31 -70 -264 -564 -1002 -697 -1444 -261 -282 278
-346 712 -158 1065 130 242 401 432 658 459 30 3 57 7 59 9 8 7 190 -4 246
-15z"/>
</g>
</svg>
